<?xml version="1.0" encoding="UTF-8" standalone="no"?>
<svg
   version="1.1"
   width="3900"
   height="6300"
   viewBox="0 0 3900 6300"
   xml:space="preserve"
   id="svg139"
   sodipodi:docname="pluraljourneyampervector-rotated.svg"
   inkscape:version="1.1.2 (0a00cf5339, 2022-02-04)"
   inkscape:export-xdpi="8.2707691"
   inkscape:export-ydpi="8.2707691"
   xmlns:inkscape="http://www.inkscape.org/namespaces/inkscape"
   xmlns:sodipodi="http://sodipodi.sourceforge.net/DTD/sodipodi-0.dtd"
   xmlns:xlink="http://www.w3.org/1999/xlink"
   xmlns="http://www.w3.org/2000/svg"
   xmlns:svg="http://www.w3.org/2000/svg"><sodipodi:namedview
   id="namedview141"
   pagecolor="#ffffff"
   bordercolor="#666666"
   borderopacity="1.0"
   inkscape:pageshadow="2"
   inkscape:pageopacity="0.0"
   inkscape:pagecheckerboard="0"
   showgrid="false"
   inkscape:zoom="0.1767767"
   inkscape:cx="772.16058"
   inkscape:cy="3445.0241"
   inkscape:window-width="1920"
   inkscape:window-height="1051"
   inkscape:window-x="5360"
   inkscape:window-y="1080"
   inkscape:window-maximized="1"
   inkscape:current-layer="svg139"
   inkscape:snap-others="true"
   inkscape:snap-bbox="true"
   inkscape:bbox-paths="true"
   inkscape:snap-page="true"
   inkscape:snap-object-midpoints="true"
   inkscape:object-paths="true"
   inkscape:snap-intersection-paths="false"
   inkscape:snap-global="false"
   inkscape:snap-midpoints="true"
   inkscape:snap-smooth-nodes="true"
   fit-margin-top="0"
   fit-margin-left="0"
   fit-margin-right="0"
   fit-margin-bottom="0" />
<desc
   id="desc76">Created with Fabric.js 4.3.1</desc>
<defs
   id="defs78"><linearGradient
   id="linearGradient78067"
   inkscape:swatch="solid"><stop
     style="stop-color:#000000;stop-opacity:1;"
     offset="0"
     id="stop78065" /></linearGradient><linearGradient
   id="linearGradient39670"
   inkscape:swatch="solid"><stop
     style="stop-color:#000000;stop-opacity:1;"
     offset="0"
     id="stop39668" /></linearGradient>
<linearGradient
   inkscape:collect="always"
   xlink:href="#linearGradient39670"
   id="linearGradient39672"
   x1="-2289.8081"
   y1="0"
   x2="2289.8081"
   y2="0"
   gradientUnits="userSpaceOnUse" /><linearGradient
   inkscape:collect="always"
   xlink:href="#linearGradient78067"
   id="linearGradient78069"
   x1="-512.5"
   y1="0"
   x2="512.5"
   y2="0"
   gradientUnits="userSpaceOnUse" />


		


</defs>









<g
   id="g52"
   transform="rotate(90,1950,1950)"><rect
     style="fill:#31c69e;fill-opacity:1;stroke:none;stroke-width:2.58432"
     id="rect28784"
     width="6299.9995"
     height="1656.8219"
     x="4.934362e-05"
     y="1114.119" /><g
     transform="matrix(6.1523438,0,0,0.5591289,3150.0001,3057.215)"
     id="Layer_1"
     style="fill:#347dde;fill-opacity:1;stroke:none">

</g><g
     transform="matrix(6.1523438,0,0,0.55207018,3150,831.45906)"
     id="g85"
     style="fill:#347dde;fill-opacity:1;stroke:none">

</g><g
     transform="matrix(6.1523435,0,0,0.53712694,3149.9999,1942.53)"
     id="g89"
     style="fill:#000000;fill-opacity:1;stroke:none">

</g><g
     transform="matrix(1.3786686,0,0,1.06,3149.9999,1390.82)"
     id="g105"
     style="fill:#31c69e;fill-opacity:1;stroke:none">
<g
   id="g103"
   style="fill:#31c69e;fill-opacity:1;stroke:none;stroke-width:1.0002;stroke-miterlimit:4;stroke-dasharray:none;stroke-opacity:1">
		<g
   transform="scale(9.99)"
   id="g101"
   style="fill:#31c69e;fill-opacity:1;stroke:none;stroke-width:0.10012;stroke-miterlimit:4;stroke-dasharray:none;stroke-opacity:1">

</g>
</g>
</g><g
     transform="matrix(1.3786687,0,0,1.06,3150.0001,2494.24)"
     id="g113"
     style="fill:#31c69e;fill-opacity:1;stroke:none">
<g
   style="fill:#31c69e;fill-opacity:1;stroke:none"
   id="g111">
		<g
   transform="scale(9.99)"
   id="g109"
   style="fill:#31c69e;fill-opacity:1;stroke:none">

</g>
</g>
</g><g
     transform="matrix(1.3786687,0,0,1.065955,3150,3621.7445)"
     id="g129"
     style="fill:#6b3fbd;fill-opacity:1;stroke:none"
     inkscape:export-xdpi="96"
     inkscape:export-ydpi="96">
<g
   style="fill:#6b3fbd;fill-opacity:1;stroke:none"
   id="g127">
		<g
   transform="scale(9.99)"
   id="g125"
   style="fill:#6b3fbd;fill-opacity:1;stroke:none">

</g>
</g>
</g><rect
     style="fill:#347dde;fill-opacity:1;fill-rule:nonzero;stroke:none;stroke-width:1.85471;stroke-linecap:butt;stroke-linejoin:miter;stroke-miterlimit:4;stroke-dasharray:none;stroke-dashoffset:0"
     x="0.0001256"
     y="2770.9409"
     rx="0"
     ry="0"
     width="6300"
     height="572.54797"
     id="rect80" /><rect
     style="fill:#347dde;fill-opacity:1;fill-rule:nonzero;stroke:none;stroke-width:1.84297;stroke-linecap:butt;stroke-linejoin:miter;stroke-miterlimit:4;stroke-dasharray:none;stroke-dashoffset:0"
     x="2.56e-05"
     y="548.79913"
     rx="0"
     ry="0"
     width="6300"
     height="565.31989"
     id="rect83" /><path
     id="rect87"
     style="stroke-width:0.93497"
     d="m 4633.442,1667.521 h 1666.5578 v 550.0179 H 4633.442 L 4896.9222,1942.53 Z"
     sodipodi:nodetypes="cccccc" /><path
     id="rect87-3"
     style="stroke-width:1.00687"
     d="M -9.7398501e-5,1667.521 H 1669.2495 l 263.4929,275.009 -263.4929,275.0091 -1669.249597398501,-2e-4 z"
     sodipodi:nodetypes="cccccc" /><rect
     style="fill:#6b3fbd;fill-opacity:1;fill-rule:nonzero;stroke:none;stroke-width:12.1106;stroke-linecap:butt;stroke-linejoin:miter;stroke-miterlimit:4;stroke-dasharray:none;stroke-dashoffset:0"
     x="0.00017724058"
     y="3343.489"
     rx="0"
     ry="0"
     width="6299.9995"
     height="556.51099"
     id="rect123" /><rect
     style="fill:#6b3fbd;fill-opacity:1;fill-rule:nonzero;stroke:none;stroke-width:12.0264;stroke-linecap:butt;stroke-linejoin:miter;stroke-miterlimit:4;stroke-dasharray:none;stroke-dashoffset:0"
     x="0.00027724059"
     y="8.8230609e-06"
     rx="0"
     ry="0"
     width="6299.9995"
     height="548.79913"
     id="rect131" /><path
     style="fill:#000000;fill-opacity:1;stroke:none;stroke-width:1px;stroke-linecap:butt;stroke-linejoin:miter;stroke-opacity:1"
     d="m 2554.548,294.15642 c -433.1793,1.36737 -639.1342,246.66078 -732.5413,512.21671 -101.4298,288.36447 0.3543,673.66867 169.6842,861.14787 l 1736.6544,1884.9835 h 557.2001 L 2336.7591,1425.5272 C 2081.5659,1120.7416 2228.243,690.01358 2554.548,690.13622 c 381.1026,0.14324 527.1004,487.86648 246.0732,735.39098 l -808.9303,792.0118 c -269.1073,249.8152 -316.527,554.1395 -243.2447,774.9369 297.7097,896.9906 1611.9286,576.5833 1878.0756,328.0975 248.535,-232.0424 556.489,-641.722 401.6368,-1103.0344 h 282.8422 l 271.5293,-275.009 -271.5293,-275.009 h -763.6749 l -271.5291,275.009 362.0388,405.0645 c 41.3968,332.9191 -205.353,481.8918 -415.1115,656.1033 -229.1664,190.3306 -750.1062,206.7735 -921.6872,-11.2219 -185.5657,-235.7629 -13.8268,-527.754 253.5111,-774.9369 l 562.857,-550.018 c 197.5357,-200.2327 323.2755,-543.2881 204.5046,-861.14787 -81.9827,-219.40549 -349.042,-503.95526 -767.3616,-512.21671 z"
     id="path3104"
     sodipodi:nodetypes="csccccsccsscccccccssccsc" /></g></svg>
